M48
; DRILL file {KiCad (5.1.4)-1} date 11/11/21 00:12:21
; FORMAT={-:-/ absolute / inch / decimal}
; #@! TF.CreationDate,2021-11-11T00:12:21+01:00
; #@! TF.GenerationSoftware,Kicad,Pcbnew,(5.1.4)-1
; #@! TF.FileFunction,Plated,1,2,PTH
FMAT,2
INCH
T1C0.0157
T2C0.0276
T3C0.0394
T4C0.0433
T5C0.0579
T6C0.0866
T7C0.1024
%
G90
G05
T1
X8.9375Y-4.0938
T2
X9.9402Y-5.0312
X10.2473Y-5.0312
X7.6902Y-4.9062
X7.9973Y-4.9062
X9.1902Y-4.9062
X9.4973Y-4.9062
X7.6902Y-5.6562
X7.9973Y-5.6562
X10.6902Y-3.4062
X10.9973Y-3.4062
X8.0027Y-3.5312
X8.3098Y-3.5312
X8.4402Y-5.0312
X8.7473Y-5.0312
X8.4402Y-4.9062
X8.7473Y-4.9062
X9.529Y-5.7812
X9.836Y-5.7812
X10.6902Y-4.9062
X10.9973Y-4.9062
X10.6902Y-5.0312
X10.9973Y-5.0312
X9.9402Y-5.6562
X10.2473Y-5.6562
X8.4402Y-3.5312
X8.7473Y-3.5312
X7.6902Y-5.0312
X7.9973Y-5.0312
X7.6902Y-5.7812
X7.9973Y-5.7812
X8.0027Y-3.4062
X8.3098Y-3.4062
X9.9402Y-5.7812
X10.2473Y-5.7812
X10.6902Y-3.5312
X10.9973Y-3.5312
X9.9402Y-3.4062
X10.2473Y-3.4062
X8.4402Y-3.4062
X8.7473Y-3.4062
X9.9402Y-4.9062
X10.2473Y-4.9062
X9.9402Y-3.5312
X10.2473Y-3.5312
X9.1802Y-3.4062
X9.4873Y-3.4062
X9.1802Y-3.5312
X9.4873Y-3.5312
X9.1902Y-5.0312
X9.4973Y-5.0312
T3
X7.682Y-2.818
X7.682Y-3.3889
X7.7805Y-3.3889
X7.8789Y-2.818
X7.8789Y-3.3889
T4
X8.982Y-2.87
X8.982Y-2.97
X8.982Y-3.07
X8.982Y-3.17
X8.982Y-3.27
X8.982Y-3.37
X8.982Y-3.47
X8.982Y-3.57
X8.982Y-3.67
X8.982Y-3.77
X8.982Y-3.87
X8.982Y-3.97
X9.582Y-2.87
X9.582Y-2.97
X9.582Y-3.07
X9.582Y-3.17
X9.582Y-3.27
X9.582Y-3.37
X9.582Y-3.47
X9.582Y-3.57
X9.582Y-3.67
X9.582Y-3.77
X9.582Y-3.87
X9.582Y-3.97
T5
X7.6312Y-4.4937
X7.8812Y-4.3937
X8.3812Y-2.9937
X8.6312Y-2.8937
X7.6312Y-5.2437
X7.8812Y-5.1437
X9.1312Y-5.9937
X9.3812Y-5.8937
X10.8812Y-5.5687
X10.9812Y-5.8187
X8.3812Y-3.7437
X8.6312Y-3.6437
X10.6312Y-5.9937
X10.8812Y-5.8937
X9.8812Y-4.4937
X10.1312Y-4.3937
X9.8812Y-5.2437
X10.1312Y-5.1437
X8.7562Y-5.9937
X9.0062Y-5.8937
X10.8812Y-4.0687
X10.9812Y-4.3187
X9.8812Y-3.7437
X10.1312Y-3.6437
X7.6312Y-2.9937
X7.8812Y-2.8937
X10.6312Y-5.2437
X10.8812Y-5.1437
X8.3812Y-5.9937
X8.6312Y-5.8937
X8.3812Y-4.4937
X8.6312Y-4.3937
X9.1312Y-3.7437
X9.3812Y-3.6437
X8.3812Y-5.2437
X8.6312Y-5.1437
X7.6312Y-3.7437
X7.8812Y-3.6437
X7.6312Y-5.9937
X7.8812Y-5.8937
X9.8812Y-5.9937
X10.1312Y-5.8937
X9.8812Y-2.9937
X10.1312Y-2.8937
X10.6312Y-3.7437
X10.8812Y-3.6437
X9.1312Y-2.9937
X9.3812Y-2.8937
X10.6312Y-4.4937
X10.8812Y-4.3937
X9.1312Y-5.2437
X9.3812Y-5.1437
X9.1312Y-4.4937
X9.3812Y-4.3937
X10.6312Y-2.9937
X10.8812Y-2.8937
T6
X8.1562Y-2.9375
X9.2812Y-4.2188
X10.4062Y-4.9688
X8.1562Y-4.9688
X10.4062Y-2.9375
T7
X7.56Y-3.0936
X8.0009Y-3.0936
T0
M30
