M48
; DRILL file {KiCad (5.1.4)-1} date 11/11/21 00:12:21
; FORMAT={-:-/ absolute / inch / decimal}
; #@! TF.CreationDate,2021-11-11T00:12:21+01:00
; #@! TF.GenerationSoftware,Kicad,Pcbnew,(5.1.4)-1
; #@! TF.FileFunction,NonPlated,1,2,NPTH
FMAT,2
INCH
T1C0.0689
T2C0.1200
T3C0.1570
%
G90
G05
T1
X7.5812Y-4.5938
X7.9813Y-4.5938
X8.3312Y-3.0938
X8.7312Y-3.0938
X7.5812Y-5.3438
X7.9813Y-5.3438
X9.0812Y-6.0938
X9.4812Y-6.0938
X10.7812Y-5.5187
X10.7812Y-5.9188
X8.3312Y-3.8438
X8.7312Y-3.8438
X10.5812Y-6.0938
X10.9812Y-6.0938
X9.8312Y-4.5938
X10.2312Y-4.5938
X9.8312Y-5.3438
X10.2312Y-5.3438
X8.7062Y-6.0938
X9.1062Y-6.0938
X10.7812Y-4.0187
X10.7812Y-4.4188
X9.8312Y-3.8438
X10.2312Y-3.8438
X7.5812Y-3.0938
X7.9813Y-3.0938
X10.5812Y-5.3438
X10.9812Y-5.3438
X8.3312Y-6.0938
X8.7312Y-6.0938
X8.3312Y-4.5938
X8.7312Y-4.5938
X9.0812Y-3.8438
X9.4812Y-3.8438
X8.3312Y-5.3438
X8.7312Y-5.3438
X7.5812Y-3.8438
X7.9813Y-3.8438
X7.5812Y-6.0938
X7.9813Y-6.0938
X9.8312Y-6.0938
X10.2312Y-6.0938
X9.8312Y-3.0938
X10.2312Y-3.0938
X10.5812Y-3.8438
X10.9812Y-3.8438
X9.0812Y-3.0938
X9.4812Y-3.0938
X10.5812Y-4.5938
X10.9812Y-4.5938
X9.0812Y-5.3438
X9.4812Y-5.3438
X9.0812Y-4.5938
X9.4812Y-4.5938
X10.5812Y-3.0938
X10.9812Y-3.0938
T2
X11.0563Y-5.25
X11.0563Y-6.1875
X8.4375Y-6.3687
X9.375Y-6.3687
X11.0563Y-3.75
X11.0563Y-4.6875
T3
X7.7812Y-4.5938
X8.5312Y-3.0938
X7.7812Y-5.3438
X9.2812Y-6.0938
X10.4562Y-5.25
X10.4562Y-6.1875
X10.7812Y-5.7188
X8.5312Y-3.8438
X10.7812Y-6.0938
X10.0312Y-4.5938
X10.0312Y-5.3438
X8.4375Y-5.7687
X8.9062Y-6.0938
X9.375Y-5.7687
X10.4562Y-3.75
X10.4562Y-4.6875
X10.7812Y-4.2188
X10.0312Y-3.8438
X7.7812Y-3.0938
X10.7812Y-5.3438
X8.5312Y-6.0938
X8.5312Y-4.5938
X9.2812Y-3.8438
X8.5312Y-5.3438
X7.7812Y-3.8438
X7.7812Y-6.0938
X10.0312Y-6.0938
X10.0312Y-3.0938
X10.7812Y-3.8438
X9.2812Y-3.0938
X10.7812Y-4.5938
X9.2812Y-5.3438
X9.2812Y-4.5938
X10.7812Y-3.0938
T0
M30
